<svg width="18" height="18" viewBox="0 0 18 18" fill="none" xmlns="http://www.w3.org/2000/svg">
<path d="M0.625959 18C0.466853 18 0.307746 17.9414 0.182135 17.8158C-0.0607118 17.573 -0.0607118 17.1711 0.182135 16.9282L16.9302 0.182114C17.1731 -0.0607047 17.575 -0.0607047 17.8179 0.182114C18.0607 0.424933 18.0607 0.82684 17.8179 1.06966L1.06978 17.8158C0.944173 17.9414 0.785066 18 0.625959 18Z" fill="#889FBE"/>
<path d="M18 17.374C18 17.5331 17.9414 17.6923 17.8158 17.8179C17.573 18.0607 17.1711 18.0607 16.9282 17.8179L0.182113 1.06979C-0.0607055 0.826939 -0.0607055 0.424984 0.182113 0.182137C0.424932 -0.0607109 0.826839 -0.0607109 1.06966 0.182136L17.8158 16.9302C17.9414 17.0558 18 17.2149 18 17.374Z" fill="#889FBE"/>
</svg>
