<svg width="22" height="22" viewBox="0 0 22 22" fill="none" xmlns="http://www.w3.org/2000/svg">
<path opacity="0.35" d="M20.0189 18.6226C18.787 19.8546 17.5896 21 15.7102 21C13.4419 21 11.5381 20.1009 9.70076 18.876C7.09586 17.1394 4.86063 14.9041 3.12403 12.2992C1.89912 10.4619 1 8.55809 1 6.28978C1 4.41043 2.14545 3.21303 3.37736 1.98112C5.37306 -0.0145785 7.55244 1.40148 9.12787 2.97691C9.89089 3.73993 9.89089 4.97703 9.12786 5.74006C8.30696 6.56096 8.54578 7.56325 9.00155 8.47477C9.98034 10.4324 11.5677 12.0197 13.5252 12.9985C14.4368 13.4542 15.439 13.693 16.2599 12.8721C17.023 12.1091 18.2601 12.1091 19.0231 12.8721C20.5985 14.4476 22.0146 16.6269 20.0189 18.6226Z" stroke="#3B495B" stroke-width="2" stroke-linecap="round" stroke-linejoin="round"/>
</svg>
