<svg width="25" height="22" viewBox="0 0 25 22" fill="none" xmlns="http://www.w3.org/2000/svg">
<path opacity="0.35" d="M16 9.75C18.4162 9.75 20.375 7.79125 20.375 5.375C20.375 2.95875 18.4162 1 16 1M18.9873 21H21.5413C22.6231 21 23.5 20.1231 23.5 19.0413C23.5 16.5385 21.6814 14.4067 19.21 14.0123C19.0618 13.9886 18.9117 13.9768 18.7616 13.9768H17.5515M5.51266 13.9768L5.29004 14.0123C2.81856 14.4067 1 16.5385 1 19.0413C1 20.1231 1.87694 21 2.95871 21H14.0413C15.1231 21 16 20.1231 16 19.0413C16 16.5385 14.1814 14.4067 11.71 14.0123L11.4873 13.9768C9.5083 13.6609 7.4917 13.6609 5.51266 13.9768ZM12.875 5.375C12.875 7.79125 10.9162 9.75 8.5 9.75C6.08375 9.75 4.125 7.79125 4.125 5.375C4.125 2.95875 6.08375 1 8.5 1C10.9162 1 12.875 2.95875 12.875 5.375Z" stroke="#3B495B" stroke-width="2" stroke-linecap="round" stroke-linejoin="round"/>
</svg>
