<svg width="22" height="22" viewBox="0 0 22 22" fill="none" xmlns="http://www.w3.org/2000/svg">
<path opacity="0.35" d="M1.39209 7.61159C2.11597 4.52556 4.52556 2.11597 7.61159 1.39208C9.84028 0.869305 12.1597 0.869305 14.3884 1.39209C17.4744 2.11597 19.884 4.52557 20.6079 7.61159C21.1307 9.84028 21.1307 12.1597 20.6079 14.3884C19.884 17.4744 17.4744 19.884 14.3884 20.6079C12.1597 21.1307 9.84029 21.1307 7.6116 20.6079C4.52557 19.884 2.11597 17.4744 1.39209 14.3884C0.869305 12.1597 0.869305 9.84028 1.39209 7.61159Z" stroke="#3B495B" stroke-width="2" stroke-linecap="round" stroke-linejoin="round"/>
<rect x="9" y="6" width="2" height="7" rx="1" fill="#BBC0C6"/>
<rect x="16" y="11" width="2" height="7" rx="1" transform="rotate(90 16 11)" fill="#BBC0C6"/>
</svg>
