<svg width="22" height="23" viewBox="0 0 22 23" fill="none" xmlns="http://www.w3.org/2000/svg">
<path opacity="0.35" d="M6.37656 1V3.9327M15.6234 1V3.9327M11 12.6667H14.5294M7.47059 16.1667H14.5294M1.39209 15.2899C0.869305 13.028 0.869305 10.674 1.39209 8.4121C2.11597 5.28009 4.52557 2.8346 7.61159 2.09993C9.84029 1.56936 12.1597 1.56936 14.3884 2.09993C17.4744 2.8346 19.884 5.2801 20.6079 8.41211C21.1307 10.674 21.1307 13.028 20.6079 15.2899C19.884 18.4219 17.4744 20.8674 14.3884 21.6021C12.1597 22.1326 9.84029 22.1326 7.6116 21.6021C4.52557 20.8674 2.11597 18.4219 1.39209 15.2899Z" stroke="#3B495B" stroke-width="2" stroke-linecap="round" stroke-linejoin="round"/>
</svg>
